STARTFONT 2.1
FONT -Narae-Pinetree-Bold-I-Normal--8-80-75-75-P-47-Ncode-1
SIZE 8 75 75
FONTBOUNDINGBOX 19 11 -5 -3
COMMENT +
COMMENT  Copyleft 1995, Narae, Lee yongjae.
COMMENT
COMMENT  Narae is a name for "Society for Computer Science" in Dept. of
COMMENT  Computer Science & Statistics in Seoul National University.
COMMENT
COMMENT  This file is merged version of Times Font and Pinetree Hangul Font.
COMMENT  Permission to use, copy, modify, distribute and sell this software
COMMENT  and its documentation for any purpose and without fee is hereby
COMMENT  granted, provided that the above copyright notices appear in all
COMMENT  copies and that both those copyleft notices and this permission
COMMENT  notice appear in supporting documentation, and that the names of
COMMENT  Narae not be used in advertising or publicity pertaining
COMMENT  to distribution of the software without specific, written prior
COMMENT  permission.  Narae make no representations about the
COMMENT  suitability of this software for any purpose.  It is provided "as
COMMENT  is" without express or implied warranty.
COMMENT -
COMMENT
COMMENT $XConsortium: timBI08.bdf,v 1.14 95/01/26 18:06:10 gildea Exp $
COMMENT 
COMMENT +
COMMENT  Copyright 1984-1989, 1994 Adobe Systems Incorporated.
COMMENT  Copyright 1988, 1994 Digital Equipment Corporation.
COMMENT
COMMENT  Adobe is a trademark of Adobe Systems Incorporated which may be
COMMENT  registered in certain jurisdictions.
COMMENT  Permission to use these trademarks is hereby granted only in
COMMENT  association with the images described in this file.
COMMENT
COMMENT  Permission to use, copy, modify, distribute and sell this software
COMMENT  and its documentation for any purpose and without fee is hereby
COMMENT  granted, provided that the above copyright notices appear in all
COMMENT  copies and that both those copyright notices and this permission
COMMENT  notice appear in supporting documentation, and that the names of
COMMENT  Adobe Systems and Digital Equipment Corporation not be used in
COMMENT  advertising or publicity pertaining to distribution of the software
COMMENT  without specific, written prior permission.  Adobe Systems and
COMMENT  Digital Equipment Corporation make no representations about the
COMMENT  suitability of this software for any purpose.  It is provided "as
COMMENT  is" without express or implied warranty.
COMMENT -
STARTPROPERTIES 28
FOUNDRY "Narae"
FAMILY_NAME "Pinetree"
WEIGHT_NAME "Bold"
SLANT "I"
SETWIDTH_NAME "Normal"
ADD_STYLE_NAME ""
PIXEL_SIZE 8
POINT_SIZE 80
RESOLUTION_X 75
RESOLUTION_Y 75
SPACING "P"
AVERAGE_WIDTH 47
CHARSET_REGISTRY "Ncode"
CHARSET_ENCODING "1"
CAP_HEIGHT 5
X_HEIGHT 4
FONT_ASCENT 7
FONT_DESCENT 2
FACE_NAME "Pinetree Bold Italic"
COPYRIGHT "Copyright (c) 1984, 1987 Adobe Systems Incorporated. All Rights Reserved. Copyright (c) 1988, 1991 Digital Equipment Corporation. All Rights Reserved."
NOTICE "Times is a trademark of Linotype-Hell AG and/or its subsidiaries."
_DEC_DEVICE_FONTNAMES "PS=Times-BoldItalic"
_DEC_PRODUCTINFO "DECwindows Fonts V2.2, 07-Nov-1991"
DEFAULT_CHAR 32
RELATIVE_SETWIDTH 50
RELATIVE_WEIGHT 70
CHARSET_COLLECTIONS "Narae 3 BulSik Hangul Code"
FULL_NAME "Pinetree Bold Italic"
ENDPROPERTIES
CHARS 163
STARTCHAR space
ENCODING 32
SWIDTH 250 0
DWIDTH 2 0
BBX 1 1 0 0
BITMAP
00
ENDCHAR
STARTCHAR exclam
ENCODING 33
SWIDTH 389 0
DWIDTH 5 0
BBX 3 6 1 0
BITMAP
60
60
C0
C0
00
C0
ENDCHAR
STARTCHAR quotedbl
ENCODING 34
SWIDTH 555 0
DWIDTH 5 0
BBX 4 2 1 4
BITMAP
F0
A0
ENDCHAR
STARTCHAR numbersign
ENCODING 35
SWIDTH 500 0
DWIDTH 6 0
BBX 5 5 1 1
BITMAP
68
F8
50
F8
D0
ENDCHAR
STARTCHAR dollar
ENCODING 36
SWIDTH 500 0
DWIDTH 4 0
BBX 4 7 0 -1
BITMAP
20
70
C0
60
30
E0
40
ENDCHAR
STARTCHAR percent
ENCODING 37
SWIDTH 833 0
DWIDTH 9 0
BBX 9 5 0 0
BITMAP
6200
D400
6B00
1680
2300
ENDCHAR
STARTCHAR ampersand
ENCODING 38
SWIDTH 778 0
DWIDTH 6 0
BBX 6 5 0 0
BITMAP
38
60
7C
C8
74
ENDCHAR
STARTCHAR quoteright
ENCODING 39
SWIDTH 333 0
DWIDTH 3 0
BBX 2 3 1 3
BITMAP
C0
C0
80
ENDCHAR
STARTCHAR parenleft
ENCODING 40
SWIDTH 333 0
DWIDTH 5 0
BBX 4 8 1 -2
BITMAP
10
20
60
C0
C0
C0
40
20
ENDCHAR
STARTCHAR parenright
ENCODING 41
SWIDTH 333 0
DWIDTH 5 0
BBX 4 8 0 -2
BITMAP
40
20
30
30
30
60
40
80
ENDCHAR
STARTCHAR asterisk
ENCODING 42
SWIDTH 500 0
DWIDTH 6 0
BBX 4 3 1 3
BITMAP
60
F0
60
ENDCHAR
STARTCHAR plus
ENCODING 43
SWIDTH 570 0
DWIDTH 6 0
BBX 5 5 0 0
BITMAP
30
30
F8
60
60
ENDCHAR
STARTCHAR comma
ENCODING 44
SWIDTH 250 0
DWIDTH 3 0
BBX 3 3 -1 -1
BITMAP
60
60
C0
ENDCHAR
STARTCHAR minus
ENCODING 45
SWIDTH 606 0
DWIDTH 6 0
BBX 4 1 1 2
BITMAP
F0
ENDCHAR
STARTCHAR period
ENCODING 46
SWIDTH 250 0
DWIDTH 3 0
BBX 2 2 0 0
BITMAP
C0
C0
ENDCHAR
STARTCHAR slash
ENCODING 47
SWIDTH 278 0
DWIDTH 4 0
BBX 3 7 1 -1
BITMAP
60
60
60
C0
C0
C0
C0
ENDCHAR
STARTCHAR zero
ENCODING 48
SWIDTH 500 0
DWIDTH 4 0
BBX 4 5 0 0
BITMAP
70
D0
D0
D0
E0
ENDCHAR
STARTCHAR one
ENCODING 49
SWIDTH 500 0
DWIDTH 4 0
BBX 3 5 1 0
BITMAP
60
E0
60
C0
C0
ENDCHAR
STARTCHAR two
ENCODING 50
SWIDTH 500 0
DWIDTH 4 0
BBX 4 5 0 0
BITMAP
70
30
60
C0
F0
ENDCHAR
STARTCHAR three
ENCODING 51
SWIDTH 500 0
DWIDTH 4 0
BBX 4 5 0 0
BITMAP
70
30
60
30
E0
ENDCHAR
STARTCHAR four
ENCODING 52
SWIDTH 500 0
DWIDTH 4 0
BBX 4 5 0 0
BITMAP
30
70
A0
F0
60
ENDCHAR
STARTCHAR five
ENCODING 53
SWIDTH 500 0
DWIDTH 4 0
BBX 4 5 0 0
BITMAP
70
40
60
A0
C0
ENDCHAR
STARTCHAR six
ENCODING 54
SWIDTH 500 0
DWIDTH 4 0
BBX 4 5 0 0
BITMAP
70
C0
E0
A0
C0
ENDCHAR
STARTCHAR seven
ENCODING 55
SWIDTH 500 0
DWIDTH 4 0
BBX 4 5 0 0
BITMAP
70
30
60
C0
C0
ENDCHAR
STARTCHAR eight
ENCODING 56
SWIDTH 500 0
DWIDTH 4 0
BBX 4 5 0 0
BITMAP
70
D0
60
D0
E0
ENDCHAR
STARTCHAR nine
ENCODING 57
SWIDTH 500 0
DWIDTH 4 0
BBX 3 5 0 0
BITMAP
60
A0
E0
60
C0
ENDCHAR
STARTCHAR colon
ENCODING 58
SWIDTH 333 0
DWIDTH 2 0
BBX 3 4 0 0
BITMAP
60
00
C0
C0
ENDCHAR
STARTCHAR semicolon
ENCODING 59
SWIDTH 333 0
DWIDTH 4 0
BBX 4 5 -1 -1
BITMAP
30
00
60
60
C0
ENDCHAR
STARTCHAR less
ENCODING 60
SWIDTH 570 0
DWIDTH 5 0
BBX 5 5 1 0
BITMAP
18
60
C0
C0
60
ENDCHAR
STARTCHAR equal
ENCODING 61
SWIDTH 570 0
DWIDTH 6 0
BBX 4 3 1 1
BITMAP
F0
00
F0
ENDCHAR
STARTCHAR greater
ENCODING 62
SWIDTH 570 0
DWIDTH 5 0
BBX 4 5 0 0
BITMAP
60
30
30
60
80
ENDCHAR
STARTCHAR question
ENCODING 63
SWIDTH 500 0
DWIDTH 4 0
BBX 4 6 1 0
BITMAP
E0
30
60
C0
00
C0
ENDCHAR
STARTCHAR at
ENCODING 64
SWIDTH 832 0
DWIDTH 9 0
BBX 7 7 1 -1
BITMAP
3C
62
4E
D4
8E
80
78
ENDCHAR
STARTCHAR A
ENCODING 65
SWIDTH 667 0
DWIDTH 5 0
BBX 5 5 0 0
BITMAP
30
30
50
F0
B8
ENDCHAR
STARTCHAR B
ENCODING 66
SWIDTH 667 0
DWIDTH 6 0
BBX 6 5 0 0
BITMAP
78
6C
78
C8
F0
ENDCHAR
STARTCHAR C
ENCODING 67
SWIDTH 667 0
DWIDTH 5 0
BBX 5 5 0 0
BITMAP
30
58
C0
D0
E0
ENDCHAR
STARTCHAR D
ENCODING 68
SWIDTH 722 0
DWIDTH 6 0
BBX 6 5 0 0
BITMAP
78
4C
CC
D8
F0
ENDCHAR
STARTCHAR E
ENCODING 69
SWIDTH 667 0
DWIDTH 6 0
BBX 6 5 0 0
BITMAP
7C
60
78
C0
F8
ENDCHAR
STARTCHAR F
ENCODING 70
SWIDTH 667 0
DWIDTH 6 0
BBX 6 5 0 0
BITMAP
7C
60
78
C0
C0
ENDCHAR
STARTCHAR G
ENCODING 71
SWIDTH 722 0
DWIDTH 6 0
BBX 5 5 0 0
BITMAP
38
40
D8
D8
F0
ENDCHAR
STARTCHAR H
ENCODING 72
SWIDTH 778 0
DWIDTH 6 0
BBX 6 5 0 0
BITMAP
6C
48
78
D8
D8
ENDCHAR
STARTCHAR I
ENCODING 73
SWIDTH 389 0
DWIDTH 3 0
BBX 3 5 0 0
BITMAP
60
60
40
C0
C0
ENDCHAR
STARTCHAR J
ENCODING 74
SWIDTH 500 0
DWIDTH 4 0
BBX 4 7 0 -2
BITMAP
70
30
60
60
40
C0
C0
ENDCHAR
STARTCHAR K
ENCODING 75
SWIDTH 667 0
DWIDTH 6 0
BBX 6 5 0 0
BITMAP
6C
68
70
D8
CC
ENDCHAR
STARTCHAR L
ENCODING 76
SWIDTH 611 0
DWIDTH 5 0
BBX 5 5 0 0
BITMAP
E0
60
60
C0
F8
ENDCHAR
STARTCHAR M
ENCODING 77
SWIDTH 889 0
DWIDTH 8 0
BBX 8 5 0 0
BITMAP
F3
77
5B
DA
D6
ENDCHAR
STARTCHAR N
ENCODING 78
SWIDTH 722 0
DWIDTH 6 0
BBX 6 5 0 0
BITMAP
E4
74
5C
58
D8
ENDCHAR
STARTCHAR O
ENCODING 79
SWIDTH 722 0
DWIDTH 6 0
BBX 5 5 0 0
BITMAP
30
58
D8
D0
60
ENDCHAR
STARTCHAR P
ENCODING 80
SWIDTH 611 0
DWIDTH 5 0
BBX 5 5 0 0
BITMAP
78
68
70
C0
C0
ENDCHAR
STARTCHAR Q
ENCODING 81
SWIDTH 722 0
DWIDTH 6 0
BBX 5 7 0 -2
BITMAP
30
58
D8
D0
60
30
10
ENDCHAR
STARTCHAR R
ENCODING 82
SWIDTH 667 0
DWIDTH 6 0
BBX 6 5 0 0
BITMAP
78
6C
78
D8
D8
ENDCHAR
STARTCHAR S
ENCODING 83
SWIDTH 556 0
DWIDTH 5 0
BBX 5 5 0 0
BITMAP
38
60
70
38
F0
ENDCHAR
STARTCHAR T
ENCODING 84
SWIDTH 611 0
DWIDTH 5 0
BBX 5 5 1 0
BITMAP
F8
60
60
C0
C0
ENDCHAR
STARTCHAR U
ENCODING 85
SWIDTH 722 0
DWIDTH 6 0
BBX 6 5 0 0
BITMAP
6C
6C
C8
D8
70
ENDCHAR
STARTCHAR V
ENCODING 86
SWIDTH 667 0
DWIDTH 6 0
BBX 6 5 1 0
BITMAP
CC
D8
D0
F0
E0
ENDCHAR
STARTCHAR W
ENCODING 87
SWIDTH 889 0
DWIDTH 7 0
BBX 8 5 0 0
BITMAP
D7
D4
DC
FC
C8
ENDCHAR
STARTCHAR X
ENCODING 88
SWIDTH 667 0
DWIDTH 6 0
BBX 7 5 0 0
BITMAP
6E
38
30
78
D8
ENDCHAR
STARTCHAR Y
ENCODING 89
SWIDTH 611 0
DWIDTH 5 0
BBX 6 5 0 0
BITMAP
EC
68
70
60
E0
ENDCHAR
STARTCHAR Z
ENCODING 90
SWIDTH 611 0
DWIDTH 5 0
BBX 6 5 -1 0
BITMAP
7C
18
30
68
F8
ENDCHAR
STARTCHAR bracketleft
ENCODING 91
SWIDTH 333 0
DWIDTH 4 0
BBX 4 7 0 -1
BITMAP
70
60
60
60
C0
C0
E0
ENDCHAR
STARTCHAR backslash
ENCODING 92
SWIDTH 278 0
DWIDTH 4 0
BBX 3 7 0 -1
BITMAP
C0
C0
C0
60
60
60
60
ENDCHAR
STARTCHAR bracketright
ENCODING 93
SWIDTH 333 0
DWIDTH 4 0
BBX 4 7 0 -1
BITMAP
70
30
30
60
60
60
E0
ENDCHAR
STARTCHAR asciicircum
ENCODING 94
SWIDTH 570 0
DWIDTH 6 0
BBX 4 3 1 3
BITMAP
60
F0
90
ENDCHAR
STARTCHAR underscore
ENCODING 95
SWIDTH 500 0
DWIDTH 4 0
BBX 4 2 -1 -2
BITMAP
F0
F0
ENDCHAR
STARTCHAR quoteleft
ENCODING 96
SWIDTH 333 0
DWIDTH 3 0
BBX 2 3 1 3
BITMAP
80
C0
C0
ENDCHAR
STARTCHAR a
ENCODING 97
SWIDTH 500 0
DWIDTH 4 0
BBX 4 4 0 0
BITMAP
60
30
F0
E0
ENDCHAR
STARTCHAR b
ENCODING 98
SWIDTH 500 0
DWIDTH 4 0
BBX 4 6 0 0
BITMAP
20
20
70
50
D0
E0
ENDCHAR
STARTCHAR c
ENCODING 99
SWIDTH 444 0
DWIDTH 4 0
BBX 4 4 0 0
BITMAP
70
C0
D0
60
ENDCHAR
STARTCHAR d
ENCODING 100
SWIDTH 500 0
DWIDTH 4 0
BBX 5 6 0 0
BITMAP
08
08
70
D0
D0
60
ENDCHAR
STARTCHAR e
ENCODING 101
SWIDTH 444 0
DWIDTH 4 0
BBX 4 4 0 0
BITMAP
60
F0
C0
60
ENDCHAR
STARTCHAR f
ENCODING 102
SWIDTH 333 0
DWIDTH 3 0
BBX 4 8 0 -2
BITMAP
30
20
F0
40
40
80
80
80
ENDCHAR
STARTCHAR g
ENCODING 103
SWIDTH 500 0
DWIDTH 3 0
BBX 4 6 -1 -2
BITMAP
70
50
60
60
A0
C0
ENDCHAR
STARTCHAR h
ENCODING 104
SWIDTH 556 0
DWIDTH 4 0
BBX 4 6 0 0
BITMAP
40
40
70
D0
90
A0
ENDCHAR
STARTCHAR i
ENCODING 105
SWIDTH 278 0
DWIDTH 2 0
BBX 2 6 0 0
BITMAP
40
00
40
40
80
80
ENDCHAR
STARTCHAR j
ENCODING 106
SWIDTH 278 0
DWIDTH 2 0
BBX 3 8 -1 -2
BITMAP
20
00
20
20
40
40
80
80
ENDCHAR
STARTCHAR k
ENCODING 107
SWIDTH 500 0
DWIDTH 4 0
BBX 4 6 0 0
BITMAP
40
40
50
60
E0
D0
ENDCHAR
STARTCHAR l
ENCODING 108
SWIDTH 278 0
DWIDTH 2 0
BBX 2 6 0 0
BITMAP
40
40
40
80
80
80
ENDCHAR
STARTCHAR m
ENCODING 109
SWIDTH 778 0
DWIDTH 6 0
BBX 6 4 0 0
BITMAP
7C
54
D4
A8
ENDCHAR
STARTCHAR n
ENCODING 110
SWIDTH 556 0
DWIDTH 4 0
BBX 4 4 0 0
BITMAP
70
50
90
A0
ENDCHAR
STARTCHAR o
ENCODING 111
SWIDTH 500 0
DWIDTH 4 0
BBX 4 4 0 0
BITMAP
70
D0
D0
60
ENDCHAR
STARTCHAR p
ENCODING 112
SWIDTH 500 0
DWIDTH 4 0
BBX 4 6 0 -2
BITMAP
60
50
D0
E0
80
80
ENDCHAR
STARTCHAR q
ENCODING 113
SWIDTH 500 0
DWIDTH 4 0
BBX 4 6 0 -2
BITMAP
70
D0
D0
60
20
20
ENDCHAR
STARTCHAR r
ENCODING 114
SWIDTH 389 0
DWIDTH 3 0
BBX 4 4 0 0
BITMAP
70
40
C0
80
ENDCHAR
STARTCHAR s
ENCODING 115
SWIDTH 389 0
DWIDTH 3 0
BBX 3 4 0 0
BITMAP
60
C0
60
C0
ENDCHAR
STARTCHAR t
ENCODING 116
SWIDTH 278 0
DWIDTH 3 0
BBX 4 5 0 0
BITMAP
20
70
40
C0
60
ENDCHAR
STARTCHAR u
ENCODING 117
SWIDTH 556 0
DWIDTH 4 0
BBX 4 4 0 0
BITMAP
50
50
B0
60
ENDCHAR
STARTCHAR v
ENCODING 118
SWIDTH 444 0
DWIDTH 3 0
BBX 3 4 0 0
BITMAP
A0
A0
C0
40
ENDCHAR
STARTCHAR w
ENCODING 119
SWIDTH 667 0
DWIDTH 6 0
BBX 6 4 0 0
BITMAP
8C
A8
78
50
ENDCHAR
STARTCHAR x
ENCODING 120
SWIDTH 500 0
DWIDTH 3 0
BBX 4 4 0 0
BITMAP
50
60
60
A0
ENDCHAR
STARTCHAR y
ENCODING 121
SWIDTH 444 0
DWIDTH 4 0
BBX 4 6 0 -2
BITMAP
D0
50
60
40
40
80
ENDCHAR
STARTCHAR z
ENCODING 122
SWIDTH 389 0
DWIDTH 3 0
BBX 3 4 0 0
BITMAP
E0
20
C0
E0
ENDCHAR
STARTCHAR braceleft
ENCODING 123
SWIDTH 348 0
DWIDTH 4 0
BBX 5 7 0 -1
BITMAP
38
20
60
C0
40
40
60
ENDCHAR
STARTCHAR bar
ENCODING 124
SWIDTH 220 0
DWIDTH 2 0
BBX 1 7 1 -1
BITMAP
80
80
80
80
80
80
80
ENDCHAR
STARTCHAR braceright
ENCODING 125
SWIDTH 348 0
DWIDTH 4 0
BBX 5 7 -1 -1
BITMAP
70
10
10
38
20
60
C0
ENDCHAR
STARTCHAR asciitilde
ENCODING 126
SWIDTH 570 0
DWIDTH 5 0
BBX 5 2 0 2
BITMAP
58
B0
ENDCHAR
STARTCHAR k_fill
ENCODING 160
SWIDTH 320 0
DWIDTH 3 0
BBX 0 0 0 -2
BITMAP
ENDCHAR
STARTCHAR k_K
ENCODING 161
SWIDTH 320 0
DWIDTH 3 0
BBX 3 3 0 3
BITMAP
e0
20
20
ENDCHAR
STARTCHAR k_Kk
ENCODING 162
SWIDTH 426 0
DWIDTH 4 0
BBX 4 3 0 3
BITMAP
f0
50
50
ENDCHAR
STARTCHAR k_N
ENCODING 163
SWIDTH 320 0
DWIDTH 3 0
BBX 3 3 0 3
BITMAP
80
80
e0
ENDCHAR
STARTCHAR k_T
ENCODING 164
SWIDTH 320 0
DWIDTH 3 0
BBX 3 3 0 3
BITMAP
e0
80
e0
ENDCHAR
STARTCHAR k_Tt
ENCODING 165
SWIDTH 426 0
DWIDTH 4 0
BBX 4 3 0 3
BITMAP
f0
a0
f0
ENDCHAR
STARTCHAR k_R
ENCODING 166
SWIDTH 320 0
DWIDTH 3 0
BBX 3 3 0 3
BITMAP
e0
e0
e0
ENDCHAR
STARTCHAR k_M
ENCODING 167
SWIDTH 320 0
DWIDTH 3 0
BBX 3 3 0 3
BITMAP
e0
a0
e0
ENDCHAR
STARTCHAR k_P
ENCODING 168
SWIDTH 320 0
DWIDTH 3 0
BBX 3 3 0 3
BITMAP
a0
e0
e0
ENDCHAR
STARTCHAR k_Pp
ENCODING 169
SWIDTH 533 0
DWIDTH 5 0
BBX 5 3 0 3
BITMAP
a8
f8
f8
ENDCHAR
STARTCHAR k_S
ENCODING 170
SWIDTH 320 0
DWIDTH 3 0
BBX 3 3 0 3
BITMAP
40
40
a0
ENDCHAR
STARTCHAR k_Ss
ENCODING 171
SWIDTH 533 0
DWIDTH 5 0
BBX 5 3 0 3
BITMAP
50
50
a8
ENDCHAR
STARTCHAR k_O
ENCODING 172
SWIDTH 320 0
DWIDTH 3 0
BBX 3 3 0 3
BITMAP
40
a0
40
ENDCHAR
STARTCHAR k_C
ENCODING 173
SWIDTH 320 0
DWIDTH 3 0
BBX 3 3 0 3
BITMAP
e0
40
a0
ENDCHAR
STARTCHAR k_Cc
ENCODING 174
SWIDTH 533 0
DWIDTH 5 0
BBX 5 3 0 3
BITMAP
f8
50
a8
ENDCHAR
STARTCHAR k_Ch
ENCODING 175
SWIDTH 320 0
DWIDTH 3 0
BBX 3 4 0 3
BITMAP
40
e0
40
a0
ENDCHAR
STARTCHAR k_Kh
ENCODING 176
SWIDTH 320 0
DWIDTH 3 0
BBX 3 3 0 3
BITMAP
e0
e0
20
ENDCHAR
STARTCHAR k_Th
ENCODING 177
SWIDTH 320 0
DWIDTH 3 0
BBX 3 3 0 3
BITMAP
e0
c0
e0
ENDCHAR
STARTCHAR k_Ph
ENCODING 178
SWIDTH 426 0
DWIDTH 4 0
BBX 4 3 0 3
BITMAP
f0
60
f0
ENDCHAR
STARTCHAR k_H
ENCODING 179
SWIDTH 320 0
DWIDTH 3 0
BBX 3 4 0 3
BITMAP
40
e0
a0
40
ENDCHAR
STARTCHAR k_a
ENCODING 180
SWIDTH 426 0
DWIDTH 4 0
BBX 2 5 1 1
BITMAP
80
c0
80
80
80
ENDCHAR
STARTCHAR k_ae
ENCODING 181
SWIDTH 533 0
DWIDTH 5 0
BBX 3 5 1 1
BITMAP
a0
e0
a0
a0
20
ENDCHAR
STARTCHAR k_ya
ENCODING 182
SWIDTH 426 0
DWIDTH 4 0
BBX 2 5 1 1
BITMAP
80
c0
80
c0
80
ENDCHAR
STARTCHAR k_yae
ENCODING 183
SWIDTH 533 0
DWIDTH 5 0
BBX 3 5 1 1
BITMAP
a0
e0
a0
e0
a0
ENDCHAR
STARTCHAR k_eo
ENCODING 184
SWIDTH 320 0
DWIDTH 3 0
BBX 2 5 0 1
BITMAP
40
c0
40
40
40
ENDCHAR
STARTCHAR k_e
ENCODING 185
SWIDTH 533 0
DWIDTH 5 0
BBX 4 5 0 1
BITMAP
50
d0
50
50
10
ENDCHAR
STARTCHAR k_yeo
ENCODING 186
SWIDTH 320 0
DWIDTH 3 0
BBX 2 5 0 1
BITMAP
40
c0
40
c0
40
ENDCHAR
STARTCHAR k_ye
ENCODING 187
SWIDTH 533 0
DWIDTH 5 0
BBX 4 5 0 1
BITMAP
50
d0
50
d0
50
ENDCHAR
STARTCHAR k_o
ENCODING 188
SWIDTH 106 0
DWIDTH 1 0
BBX 3 2 -3 1
BITMAP
40
e0
ENDCHAR
STARTCHAR k_wa
ENCODING 189
SWIDTH 426 0
DWIDTH 4 0
BBX 6 5 -3 1
BITMAP
08
0c
08
48
e8
ENDCHAR
STARTCHAR k_wae
ENCODING 190
SWIDTH 533 0
DWIDTH 5 0
BBX 7 5 -3 1
BITMAP
0a
0e
0a
4a
e2
ENDCHAR
STARTCHAR k_oe
ENCODING 191
SWIDTH 320 0
DWIDTH 3 0
BBX 5 5 -3 1
BITMAP
08
08
08
48
e8
ENDCHAR
STARTCHAR k_yo
ENCODING 192
SWIDTH 106 0
DWIDTH 1 0
BBX 5 2 -4 1
BITMAP
50
f8
ENDCHAR
STARTCHAR k_u
ENCODING 193
SWIDTH 106 0
DWIDTH 1 0
BBX 3 2 -3 1
BITMAP
e0
40
ENDCHAR
STARTCHAR k_weo
ENCODING 194
SWIDTH 320 0
DWIDTH 3 0
BBX 5 6 -3 1
BITMAP
08
08
18
08
e8
48
ENDCHAR
STARTCHAR k_we
ENCODING 195
SWIDTH 533 0
DWIDTH 5 0
BBX 7 5 -3 1
BITMAP
0a
1a
0a
ea
42
ENDCHAR
STARTCHAR k_wi
ENCODING 196
SWIDTH 320 0
DWIDTH 3 0
BBX 5 5 -3 1
BITMAP
08
08
08
e8
48
ENDCHAR
STARTCHAR k_yu
ENCODING 197
SWIDTH 106 0
DWIDTH 1 0
BBX 5 2 -4 1
BITMAP
f8
50
ENDCHAR
STARTCHAR k_eu
ENCODING 198
SWIDTH 106 0
DWIDTH 1 0
BBX 3 1 -3 1
BITMAP
e0
ENDCHAR
STARTCHAR k_yi
ENCODING 199
SWIDTH 320 0
DWIDTH 3 0
BBX 5 5 -3 1
BITMAP
08
08
08
08
e8
ENDCHAR
STARTCHAR k_i
ENCODING 200
SWIDTH 320 0
DWIDTH 3 0
BBX 1 5 1 1
BITMAP
80
80
80
80
80
ENDCHAR
STARTCHAR k_k
ENCODING 201
SWIDTH 0 0
DWIDTH 0 0
BBX 3 3 -4 -2
BITMAP
e0
20
20
ENDCHAR
STARTCHAR k_kk
ENCODING 202
SWIDTH 0 0
DWIDTH 0 0
BBX 4 3 -4 -2
BITMAP
f0
50
50
ENDCHAR
STARTCHAR k_ks
ENCODING 203
SWIDTH 0 0
DWIDTH 0 0
BBX 4 3 -4 -2
BITMAP
d0
60
50
ENDCHAR
STARTCHAR k_n
ENCODING 204
SWIDTH 0 0
DWIDTH 0 0
BBX 3 3 -4 -2
BITMAP
80
80
e0
ENDCHAR
STARTCHAR k_nc
ENCODING 205
SWIDTH 0 0
DWIDTH 0 0
BBX 5 3 -5 -2
BITMAP
b8
90
e8
ENDCHAR
STARTCHAR k_nh
ENCODING 206
SWIDTH 0 0
DWIDTH 0 0
BBX 5 3 -5 -2
BITMAP
90
b8
d0
ENDCHAR
STARTCHAR k_t
ENCODING 207
SWIDTH 0 0
DWIDTH 0 0
BBX 3 3 -4 -2
BITMAP
e0
80
e0
ENDCHAR
STARTCHAR k_l
ENCODING 208
SWIDTH 0 0
DWIDTH 0 0
BBX 3 3 -4 -2
BITMAP
e0
e0
e0
ENDCHAR
STARTCHAR k_lk
ENCODING 209
SWIDTH 0 0
DWIDTH 0 0
BBX 4 3 -4 -2
BITMAP
f0
d0
d0
ENDCHAR
STARTCHAR k_lm
ENCODING 210
SWIDTH 0 0
DWIDTH 0 0
BBX 4 3 -4 -2
BITMAP
f0
d0
f0
ENDCHAR
STARTCHAR k_lp
ENCODING 211
SWIDTH 0 0
DWIDTH 0 0
BBX 4 3 -4 -2
BITMAP
d0
f0
f0
ENDCHAR
STARTCHAR k_ls
ENCODING 212
SWIDTH 0 0
DWIDTH 0 0
BBX 4 3 -4 -2
BITMAP
d0
e0
d0
ENDCHAR
STARTCHAR k_lth
ENCODING 213
SWIDTH 0 0
DWIDTH 0 0
BBX 4 3 -4 -2
BITMAP
f0
e0
f0
ENDCHAR
STARTCHAR k_lph
ENCODING 214
SWIDTH 0 0
DWIDTH 0 0
BBX 5 3 -5 -2
BITMAP
f8
d0
f8
ENDCHAR
STARTCHAR k_lh
ENCODING 215
SWIDTH 0 0
DWIDTH 0 0
BBX 5 3 -5 -2
BITMAP
d0
f8
d0
ENDCHAR
STARTCHAR k_m
ENCODING 216
SWIDTH 0 0
DWIDTH 0 0
BBX 3 3 -4 -2
BITMAP
e0
a0
e0
ENDCHAR
STARTCHAR k_p
ENCODING 217
SWIDTH 0 0
DWIDTH 0 0
BBX 3 3 -4 -2
BITMAP
a0
e0
e0
ENDCHAR
STARTCHAR k_ps
ENCODING 218
SWIDTH 0 0
DWIDTH 0 0
BBX 4 3 -4 -2
BITMAP
d0
e0
d0
ENDCHAR
STARTCHAR k_s
ENCODING 219
SWIDTH 0 0
DWIDTH 0 0
BBX 3 3 -4 -2
BITMAP
40
40
a0
ENDCHAR
STARTCHAR k_ss
ENCODING 220
SWIDTH 0 0
DWIDTH 0 0
BBX 5 3 -5 -2
BITMAP
50
50
a8
ENDCHAR
STARTCHAR k_ng
ENCODING 221
SWIDTH 0 0
DWIDTH 0 0
BBX 3 3 -4 -2
BITMAP
40
a0
40
ENDCHAR
STARTCHAR k_c
ENCODING 222
SWIDTH 0 0
DWIDTH 0 0
BBX 3 3 -4 -2
BITMAP
e0
40
a0
ENDCHAR
STARTCHAR k_ch
ENCODING 223
SWIDTH 0 0
DWIDTH 0 0
BBX 3 3 -4 -2
BITMAP
40
e0
e0
ENDCHAR
STARTCHAR k_kh
ENCODING 224
SWIDTH 0 0
DWIDTH 0 0
BBX 3 3 -4 -2
BITMAP
e0
e0
20
ENDCHAR
STARTCHAR k_th
ENCODING 225
SWIDTH 0 0
DWIDTH 0 0
BBX 3 3 -4 -2
BITMAP
e0
c0
e0
ENDCHAR
STARTCHAR k_ph
ENCODING 226
SWIDTH 0 0
DWIDTH 0 0
BBX 4 3 -4 -2
BITMAP
f0
60
f0
ENDCHAR
STARTCHAR k_h
ENCODING 227
SWIDTH 0 0
DWIDTH 0 0
BBX 3 3 -4 -2
BITMAP
40
e0
40
ENDCHAR
ENDFONT
